{"glyphs":{":":{"x_min":0,"x_max":278,"ha":278,"o":"m 91 427 l 91 528 l 187 528 l 187 427 z m 91 0 l 91 101 l 187 101 l 187 0 z"},"$":{"x_min":0,"x_max":556,"ha":556,"o":"m 253 10 q 45 19 11 185 l 94 203 q 106 145 145 116 q 184 86 253 82 l 253 324 q 167 346 134 363 q 101 380 80 402 q 60 424 51 450 q 42 475 42 511 q 42 586 97 629 q 152 672 253 676 l 253 740 l 313 740 l 313 676 q 405 672 455 635 q 504 598 525 520 l 440 504 q 430 550 400 575 q 371 601 313 606 l 313 389 q 401 369 438 352 q 475 334 496 313 q 518 292 529 262 q 540 233 540 193 q 540 113 481 64 q 422 15 313 10 l 313 -69 l 253 -69 z m 456 192 q 456 224 443 245 q 431 265 407 279 q 383 292 313 310 l 313 82 q 382 86 419 114 q 456 143 456 192 z m 126 512 q 126 483 138 463 q 150 443 175 429 q 199 416 253 402 l 253 607 q 126 601 126 512 z"},"?":{"x_min":0,"x_max":556,"ha":556,"o":"m 519 504 q 519 467 508 438 q 498 410 478 385 q 458 361 412 328 l 373 299 q 338 273 321 245 q 304 217 303 184 l 218 184 q 219 218 228 243 q 238 269 253 288 q 268 308 287 323 q 306 338 326 352 q 345 366 364 380 q 383 394 397 411 q 412 428 421 450 q 430 471 430 500 q 430 556 392 588 q 354 620 286 620 q 218 620 178 586 q 138 552 131 492 l 41 498 q 54 595 117 646 q 181 698 285 698 q 394 698 457 647 q 519 595 519 504 z m 214 0 l 214 98 l 309 98 l 309 0 z"},"<":{"x_min":0,"x_max":584,"ha":584,"o":"m 49 279 l 49 379 l 535 583 l 535 508 l 116 329 l 535 150 l 535 75 z"},"'":{"x_min":0,"x_max":191,"ha":191,"o":"m 130 472 l 61 472 l 51 688 l 141 688 z"},"=":{"x_min":0,"x_max":584,"ha":584,"o":"m 49 418 l 49 490 l 535 490 l 535 418 z m 49 168 l 49 240 l 535 240 l 535 168 z"},"a":{"x_min":0,"x_max":556,"ha":556,"o":"m 202 -10 q 123 -10 83 32 q 42 74 42 147 q 42 229 96 273 q 150 317 271 320 l 389 322 l 389 351 q 389 416 362 443 q 334 471 276 471 q 217 471 190 451 q 163 431 158 387 l 66 396 q 88 538 278 538 q 377 538 428 492 q 478 447 478 360 l 478 133 q 478 94 488 74 q 499 54 527 54 q 540 54 556 58 l 556 3 q 523 -5 488 -5 q 439 -5 417 21 q 395 46 392 101 l 389 101 q 355 41 311 15 q 266 -10 202 -10 z m 222 56 q 271 56 308 78 q 346 100 367 138 q 389 177 389 217 l 389 261 l 293 259 q 231 258 199 246 q 167 234 150 210 q 133 186 133 146 q 133 103 156 80 q 179 56 222 56 z"},"L":{"x_min":0,"x_max":556,"ha":556,"o":"m 82 0 l 82 688 l 175 688 l 175 76 l 523 76 l 523 0 z"},"3":{"x_min":0,"x_max":556,"ha":556,"o":"m 512 190 q 512 95 452 42 q 391 -10 279 -10 q 174 -10 112 37 q 50 84 38 177 l 129 185 q 146 63 279 63 q 345 63 383 96 q 421 128 421 193 q 421 249 378 281 q 334 312 253 312 l 203 312 l 203 388 l 251 388 q 323 388 363 420 q 403 451 403 507 q 403 562 370 594 q 338 626 274 626 q 216 626 180 596 q 144 566 138 512 l 50 519 q 60 604 120 651 q 180 698 275 698 q 378 698 436 650 q 493 602 493 516 q 493 450 456 409 q 419 368 349 353 l 349 351 q 426 343 469 299 q 512 256 512 190 z"},";":{"x_min":0,"x_max":278,"ha":278,"o":"m 188 101 l 188 25 q 188 -27 179 -62 q 169 -96 150 -128 l 90 -128 q 136 -62 136 0 l 93 0 l 93 101 z m 93 427 l 93 528 l 188 528 l 188 427 z"},"J":{"x_min":0,"x_max":500,"ha":500,"o":"m 223 -10 q 48 -10 16 171 l 107 186 q 116 129 146 98 q 177 66 224 66 q 274 66 304 101 q 333 136 333 203 l 333 612 l 201 612 l 201 688 l 426 688 l 426 205 q 426 105 372 48 q 317 -10 223 -10 z"},"V":{"x_min":0,"x_max":667,"ha":667,"o":"m 382 0 l 285 0 l 4 688 l 103 688 l 293 204 l 334 82 l 375 204 l 564 688 l 663 688 z"},"\"":{"x_min":0,"x_max":355,"ha":355,"o":"m 302 472 l 232 472 l 223 688 l 312 688 z m 122 472 l 53 472 l 42 688 l 132 688 z"},"7":{"x_min":0,"x_max":556,"ha":556,"o":"m 506 617 q 400 456 357 364 q 313 273 292 184 q 270 95 270 0 l 178 0 q 178 132 234 278 q 290 423 421 613 l 51 613 l 51 688 l 506 688 z"},"S":{"x_min":0,"x_max":667,"ha":667,"o":"m 621 190 q 621 95 547 42 q 472 -10 337 -10 q 85 -10 45 165 l 136 183 q 151 121 202 92 q 253 63 340 63 q 431 63 480 94 q 529 125 529 185 q 529 219 513 240 q 498 261 470 274 q 442 288 404 297 q 365 307 318 317 q 237 335 195 354 q 152 372 128 394 q 104 416 91 446 q 78 476 78 514 q 78 603 145 650 q 213 698 339 698 q 456 698 518 662 q 580 626 605 540 l 513 524 q 498 579 456 603 q 413 628 338 628 q 255 628 212 601 q 168 573 168 519 q 168 487 185 467 q 202 446 234 431 q 266 417 360 396 q 392 389 424 381 q 455 374 484 363 q 513 353 538 338 q 563 324 582 304 q 600 283 611 255 q 621 228 621 190 z"},"}":{"x_min":0,"x_max":334,"ha":334,"o":"m 46 -145 q 90 -145 110 -118 q 129 -91 129 -40 l 129 135 q 129 183 154 216 q 180 249 223 259 l 223 260 q 181 270 155 302 q 129 335 129 383 l 129 557 q 129 609 110 635 q 90 662 46 662 l 17 662 l 17 725 l 81 725 q 145 725 177 688 q 210 650 210 582 l 210 405 q 210 348 236 320 q 262 292 316 290 l 316 228 q 261 226 236 197 q 210 169 210 112 l 210 -64 q 210 -132 177 -170 q 143 -208 81 -208 l 17 -208 l 17 -145 z"},"Z":{"x_min":0,"x_max":611,"ha":611,"o":"m 580 0 l 32 0 l 32 70 l 451 612 l 67 612 l 67 688 l 557 688 l 557 620 l 138 76 l 580 76 z"},"x":{"x_min":0,"x_max":500,"ha":500,"o":"m 391 0 l 249 217 l 106 0 l 11 0 l 199 271 l 20 528 l 117 528 l 249 323 l 380 528 l 478 528 l 299 272 l 489 0 z"},")":{"x_min":0,"x_max":333,"ha":333,"o":"m 271 258 q 271 117 227 4 q 183 -108 91 -207 l 6 -207 q 98 -104 140 9 q 183 123 183 259 q 183 395 140 509 q 97 623 6 725 l 91 725 q 183 625 227 512 q 271 400 271 260 z"},"&":{"x_min":0,"x_max":667,"ha":667,"o":"m 583 -6 q 496 -6 437 56 q 400 24 354 7 q 307 -10 255 -10 q 150 -10 93 41 q 35 91 35 181 q 35 317 203 391 q 187 421 175 462 q 163 504 163 538 q 163 611 208 652 q 252 692 334 692 q 408 692 453 655 q 499 618 499 553 q 499 496 454 451 q 409 406 299 362 q 353 262 442 161 q 497 242 525 361 l 596 340 q 565 218 493 111 q 540 63 594 63 q 629 63 651 71 l 651 5 q 624 -6 583 -6 z m 424 553 q 424 588 400 611 q 375 633 333 633 q 287 633 262 608 q 238 583 238 538 q 238 482 270 419 q 333 445 364 464 q 394 483 409 505 q 424 527 424 553 z m 388 106 q 292 220 232 329 q 117 280 117 182 q 117 123 155 89 q 193 54 258 54 q 293 54 328 68 q 362 81 388 106 z"},"_":{"x_min":0,"x_max":556,"ha":556,"o":"m -15 -199 l -15 -135 l 567 -135 l 567 -199 z"},"v":{"x_min":0,"x_max":500,"ha":500,"o":"m 299 0 l 195 0 l 3 528 l 97 528 l 213 185 q 220 165 247 69 l 264 126 l 283 184 l 403 528 l 497 528 z"},"O":{"x_min":0,"x_max":778,"ha":778,"o":"m 730 347 q 730 239 689 158 q 647 77 570 34 q 493 -10 388 -10 q 282 -10 205 33 q 128 76 88 157 q 47 239 47 347 q 47 512 138 605 q 228 698 389 698 q 494 698 571 656 q 648 615 689 535 q 730 456 730 347 z m 635 347 q 635 476 571 549 q 506 622 389 622 q 271 622 207 550 q 142 478 142 347 q 142 218 207 142 q 272 66 388 66 q 507 66 571 139 q 635 213 635 347 z"},"(":{"x_min":0,"x_max":333,"ha":333,"o":"m 62 260 q 62 401 106 513 q 150 625 242 725 l 327 725 q 236 623 193 509 q 150 395 150 259 q 150 124 193 10 q 235 -104 327 -207 l 242 -207 q 150 -107 106 5 q 62 118 62 258 z"},"C":{"x_min":0,"x_max":722,"ha":722,"o":"m 387 622 q 272 622 209 549 q 146 475 146 347 q 146 221 212 144 q 278 67 391 67 q 535 67 608 210 l 684 172 q 642 83 565 37 q 488 -10 386 -10 q 282 -10 206 33 q 130 77 91 157 q 51 237 51 347 q 51 512 140 605 q 229 698 386 698 q 496 698 569 655 q 643 612 678 528 l 589 499 q 565 559 512 590 q 459 622 387 622 z"},"W":{"x_min":0,"x_max":944,"ha":944,"o":"m 738 0 l 626 0 l 507 437 q 496 478 473 584 q 460 527 452 489 q 443 451 318 0 l 207 0 l 4 688 l 102 688 l 225 251 q 247 169 266 82 q 277 136 293 199 q 308 263 428 688 l 518 688 l 637 260 q 665 155 680 82 l 685 99 q 698 155 706 191 q 714 226 843 688 l 940 688 z"},"A":{"x_min":0,"x_max":667,"ha":667,"o":"m 570 0 l 491 201 l 178 201 l 99 0 l 2 0 l 283 688 l 389 688 l 665 0 z m 334 618 l 330 604 q 318 563 294 500 l 206 274 l 463 274 l 375 501 q 361 535 348 577 z"},"f":{"x_min":0,"x_max":278,"ha":278,"o":"m 176 464 l 176 0 l 88 0 l 88 464 l 14 464 l 14 528 l 88 528 l 88 588 q 88 660 120 692 q 152 724 217 724 q 254 724 279 718 l 279 651 q 257 655 240 655 q 207 655 191 638 q 176 621 176 576 l 176 528 l 279 528 l 279 464 z"},"Q":{"x_min":0,"x_max":778,"ha":778,"o":"m 730 347 q 730 202 657 108 q 583 14 453 -3 q 473 -64 506 -92 q 538 -119 588 -119 q 615 -119 644 -113 l 644 -178 q 599 -189 557 -189 q 483 -189 436 -147 q 388 -105 358 -8 q 261 -3 191 41 q 121 85 84 164 q 47 243 47 347 q 47 512 138 605 q 228 698 389 698 q 494 698 571 656 q 648 615 689 535 q 730 456 730 347 z m 635 347 q 635 476 571 549 q 506 622 389 622 q 271 622 207 550 q 142 478 142 347 q 142 218 207 142 q 272 66 388 66 q 507 66 571 139 q 635 213 635 347 z"},"w":{"x_min":0,"x_max":722,"ha":722,"o":"m 573 0 l 471 0 l 379 374 l 361 456 q 357 434 348 393 q 338 352 248 0 l 146 0 l -1 528 l 85 528 l 175 169 q 178 158 196 73 l 204 109 l 314 528 l 409 528 l 501 166 l 523 73 l 539 141 l 639 528 l 725 528 z"},"-":{"x_min":0,"x_max":333,"ha":333,"o":"m 44 227 l 44 305 l 289 305 l 289 227 z"},"E":{"x_min":0,"x_max":667,"ha":667,"o":"m 82 0 l 82 688 l 604 688 l 604 612 l 175 612 l 175 391 l 575 391 l 575 316 l 175 316 l 175 76 l 624 76 l 624 0 z"},"s":{"x_min":0,"x_max":500,"ha":500,"o":"m 464 146 q 464 71 407 31 q 351 -10 250 -10 q 151 -10 97 23 q 44 55 28 124 l 105 139 q 117 97 152 77 q 187 57 250 57 q 316 57 347 78 q 378 98 378 139 q 378 170 357 190 q 335 209 288 222 l 225 239 q 149 258 117 277 q 85 296 67 323 q 49 350 49 389 q 49 461 100 499 q 152 537 250 537 q 338 537 389 506 q 441 475 455 407 l 375 397 q 368 433 336 451 q 304 470 250 470 q 191 470 163 452 q 134 434 134 397 q 134 375 146 360 q 158 346 181 335 q 204 325 277 307 q 347 290 378 275 q 409 260 427 242 q 444 224 454 200 q 464 176 464 146 z"},">":{"x_min":0,"x_max":584,"ha":584,"o":"m 49 75 l 49 150 l 468 329 l 49 508 l 49 583 l 535 379 l 535 279 z"},"l":{"x_min":0,"x_max":222,"ha":222,"o":"m 67 0 l 67 725 l 155 725 l 155 0 z"},"8":{"x_min":0,"x_max":556,"ha":556,"o":"m 513 192 q 513 97 452 43 q 392 -10 278 -10 q 168 -10 106 42 q 43 95 43 191 q 43 258 82 304 q 121 350 181 360 l 181 362 q 125 375 92 419 q 60 463 60 522 q 60 601 118 649 q 177 698 276 698 q 378 698 437 650 q 496 603 496 521 q 496 462 463 418 q 430 374 374 363 l 374 361 q 439 350 476 305 q 513 260 513 192 z m 404 516 q 404 633 276 633 q 214 633 182 604 q 149 574 149 516 q 149 457 183 426 q 216 395 277 395 q 339 395 372 424 q 404 452 404 516 z m 421 200 q 421 264 383 297 q 345 329 276 329 q 209 329 172 294 q 134 259 134 198 q 134 56 279 56 q 351 56 386 91 q 421 125 421 200 z"},"\\":{"x_min":0,"x_max":278,"ha":278,"o":"m 199 -10 l 0 725 l 77 725 l 278 -10 z"},"e":{"x_min":0,"x_max":556,"ha":556,"o":"m 135 246 q 135 155 172 105 q 210 56 282 56 q 339 56 374 79 q 408 102 420 137 l 498 115 q 450 -10 282 -10 q 165 -10 104 60 q 42 130 42 268 q 42 398 104 468 q 165 538 279 538 q 512 538 512 257 l 512 246 z m 421 313 q 414 396 378 435 q 343 473 277 473 q 213 473 176 430 q 139 388 136 313 z"},"b":{"x_min":0,"x_max":556,"ha":556,"o":"m 514 267 q 514 -10 320 -10 q 260 -10 220 12 q 180 34 155 82 l 154 82 q 154 67 152 36 q 150 5 149 0 l 64 0 q 67 26 67 109 l 67 725 l 155 725 l 155 518 q 155 486 153 443 l 155 443 q 180 494 220 516 q 260 538 320 538 q 420 538 467 471 q 514 403 514 267 z m 422 264 q 422 375 393 422 q 363 470 297 470 q 223 470 189 419 q 155 369 155 258 q 155 154 188 105 q 222 55 296 55 q 363 55 392 104 q 422 153 422 264 z"},"%":{"x_min":0,"x_max":889,"ha":889,"o":"m 854 212 q 854 107 814 51 q 774 -6 697 -6 q 621 -6 582 49 q 543 104 543 212 q 543 323 581 378 q 618 432 699 432 q 779 432 816 376 q 854 320 854 212 z m 257 0 l 182 0 l 632 688 l 708 688 z m 192 694 q 270 694 308 639 q 345 584 345 476 q 345 370 306 313 q 268 256 190 256 q 113 256 74 312 q 36 369 36 476 q 36 585 73 639 q 111 694 192 694 z m 781 212 q 781 299 762 339 q 744 378 699 378 q 655 378 635 339 q 615 301 615 212 q 615 128 635 88 q 654 48 698 48 q 741 48 761 89 q 781 129 781 212 z m 273 476 q 273 562 255 602 q 236 641 192 641 q 146 641 127 602 q 107 563 107 476 q 107 392 127 351 q 146 311 191 311 q 234 311 254 352 q 273 393 273 476 z"},"m":{"x_min":0,"x_max":833,"ha":833,"o":"m 375 0 l 375 335 q 375 412 354 441 q 333 470 278 470 q 222 470 189 427 q 157 384 157 306 l 157 0 l 69 0 l 69 416 q 69 508 66 528 l 149 528 q 150 526 150 515 q 151 504 152 490 q 152 477 153 438 l 155 438 q 183 494 220 516 q 256 538 309 538 q 369 538 404 514 q 439 490 453 438 l 454 438 q 481 491 520 515 q 559 538 614 538 q 694 538 731 495 q 767 451 767 352 l 767 0 l 680 0 l 680 335 q 680 412 659 441 q 638 470 583 470 q 526 470 494 427 q 462 385 462 306 l 462 0 z"},"#":{"x_min":0,"x_max":556,"ha":556,"o":"m 438 432 l 399 252 l 526 252 l 526 199 l 388 199 l 345 0 l 292 0 l 333 199 l 156 199 l 115 0 l 62 0 l 103 199 l 4 199 l 4 252 l 114 252 l 152 432 l 29 432 l 29 485 l 163 485 l 207 684 l 260 684 l 217 485 l 395 485 l 438 684 l 491 684 l 448 485 l 551 485 l 551 432 z m 208 432 l 168 252 l 345 252 l 383 432 z"},",":{"x_min":0,"x_max":278,"ha":278,"o":"m 188 107 l 188 25 q 188 -27 179 -62 q 169 -96 150 -128 l 90 -128 q 136 -62 136 0 l 93 0 l 93 107 z"},"n":{"x_min":0,"x_max":556,"ha":556,"o":"m 403 0 l 403 335 q 403 387 393 416 q 382 445 360 458 q 337 470 294 470 q 230 470 194 427 q 157 383 157 306 l 157 0 l 69 0 l 69 416 q 69 508 66 528 l 149 528 q 150 526 150 515 q 151 504 152 490 q 152 477 153 438 l 155 438 q 185 493 225 515 q 265 538 324 538 q 411 538 451 495 q 491 452 491 352 l 491 0 z"},"h":{"x_min":0,"x_max":556,"ha":556,"o":"m 155 438 q 183 490 223 514 q 263 538 324 538 q 410 538 450 495 q 491 453 491 352 l 491 0 l 403 0 l 403 335 q 403 391 393 418 q 382 445 359 458 q 335 470 294 470 q 232 470 195 427 q 157 384 157 312 l 157 0 l 69 0 l 69 725 l 157 725 l 157 536 q 157 506 156 475 q 154 443 153 438 z"},"z":{"x_min":0,"x_max":500,"ha":500,"o":"m 41 0 l 41 67 l 336 460 l 57 460 l 57 528 l 440 528 l 440 461 l 144 68 l 450 68 l 450 0 z"},"B":{"x_min":0,"x_max":667,"ha":667,"o":"m 614 194 q 614 102 547 51 q 480 0 361 0 l 82 0 l 82 688 l 332 688 q 574 688 574 521 q 574 460 540 418 q 506 377 443 363 q 525 353 570 308 q 614 263 614 194 z m 480 510 q 480 565 442 589 q 404 613 332 613 l 175 613 l 175 396 l 332 396 q 407 396 444 424 q 480 452 480 510 z m 520 201 q 520 323 349 323 l 175 323 l 175 75 l 356 75 q 442 75 481 106 q 520 138 520 201 z"},"K":{"x_min":0,"x_max":667,"ha":667,"o":"m 540 0 l 265 332 l 175 264 l 175 0 l 82 0 l 82 688 l 175 688 l 175 343 l 507 688 l 617 688 l 324 389 l 656 0 z"},"R":{"x_min":0,"x_max":722,"ha":722,"o":"m 568 0 l 390 286 l 175 286 l 175 0 l 82 0 l 82 688 l 406 688 q 522 688 585 636 q 648 584 648 491 q 648 415 604 362 q 559 310 480 296 l 676 0 z m 555 490 q 555 550 514 582 q 473 613 396 613 l 175 613 l 175 359 l 400 359 q 474 359 514 394 q 555 428 555 490 z"},"T":{"x_min":0,"x_max":611,"ha":611,"o":"m 352 612 l 352 0 l 259 0 l 259 612 l 22 612 l 22 688 l 588 688 l 588 612 z"},"P":{"x_min":0,"x_max":667,"ha":667,"o":"m 614 481 q 614 383 551 326 q 487 268 377 268 l 175 268 l 175 0 l 82 0 l 82 688 l 372 688 q 487 688 551 634 q 614 580 614 481 z m 521 480 q 521 613 360 613 l 175 613 l 175 342 l 364 342 q 521 342 521 480 z"},"|":{"x_min":0,"x_max":260,"ha":260,"o":"m 89 -212 l 89 725 l 170 725 l 170 -212 z"},"t":{"x_min":0,"x_max":278,"ha":278,"o":"m 271 4 q 227 -8 182 -8 q 76 -8 76 112 l 76 464 l 15 464 l 15 528 l 80 528 l 105 646 l 164 646 l 164 528 l 262 528 l 262 464 l 164 464 l 164 131 q 164 93 177 77 q 189 62 220 62 q 237 62 271 69 z"},"M":{"x_min":0,"x_max":833,"ha":833,"o":"m 667 0 l 667 459 q 667 535 671 605 q 647 518 628 469 l 451 0 l 385 0 l 205 469 l 178 552 l 162 605 l 163 551 l 165 459 l 165 0 l 82 0 l 82 688 l 205 688 l 388 211 q 397 182 406 149 q 416 116 418 102 q 422 121 435 161 q 447 201 452 211 l 631 688 l 751 688 l 751 0 z"},"g":{"x_min":0,"x_max":556,"ha":556,"o":"m 268 -208 q 181 -208 130 -174 q 79 -140 64 -77 l 152 -64 q 161 -101 191 -121 q 221 -141 270 -141 q 401 -141 401 13 l 401 98 l 400 98 q 375 47 332 22 q 289 -4 230 -4 q 133 -4 88 61 q 42 125 42 263 q 42 403 91 470 q 140 537 240 537 q 296 537 338 511 q 379 485 401 438 l 402 438 q 402 453 404 489 q 406 525 408 528 l 492 528 q 489 502 489 419 l 489 15 q 489 -208 268 -208 z m 401 264 q 401 329 384 375 q 366 422 334 447 q 302 471 262 471 q 194 471 164 422 q 133 374 133 264 q 133 156 162 108 q 190 61 260 61 q 302 61 334 85 q 366 110 384 156 q 401 201 401 264 z"},"j":{"x_min":0,"x_max":222,"ha":222,"o":"m 67 641 l 67 725 l 155 725 l 155 641 z m 155 -65 q 155 -140 125 -174 q 96 -208 38 -208 q 0 -208 -24 -203 l -24 -135 l 6 -138 q 40 -138 53 -121 q 67 -103 67 -52 l 67 528 l 155 528 z"},"i":{"x_min":0,"x_max":222,"ha":222,"o":"m 67 641 l 67 725 l 155 725 l 155 641 z m 67 0 l 67 528 l 155 528 l 155 0 z"},"y":{"x_min":0,"x_max":500,"ha":500,"o":"m 93 -208 q 57 -208 33 -202 l 33 -136 q 51 -139 74 -139 q 156 -139 204 -19 l 212 2 l 2 528 l 96 528 l 208 236 q 210 229 213 220 q 217 210 235 156 q 254 102 255 96 l 290 192 l 405 528 l 498 528 l 295 0 q 262 -84 234 -126 q 206 -167 171 -187 q 137 -208 93 -208 z"},"@":{"x_min":0,"x_max":1015,"ha":1015,"o":"m 929 369 q 929 278 901 204 q 873 131 823 91 q 772 51 710 51 q 662 51 636 72 q 609 94 609 137 l 611 171 l 608 171 q 576 111 528 81 q 480 51 425 51 q 349 51 306 101 q 264 150 264 239 q 264 319 296 388 q 327 457 384 497 q 440 538 509 538 q 616 538 656 449 l 659 449 l 678 527 l 754 527 l 698 280 q 680 200 680 156 q 680 110 719 110 q 758 110 791 144 q 824 178 843 237 q 862 296 862 368 q 862 455 825 523 q 787 590 716 627 q 646 663 551 663 q 433 663 342 611 q 251 559 199 460 q 147 362 147 240 q 147 146 186 73 q 224 1 297 -37 q 369 -76 466 -76 q 537 -76 609 -57 q 682 -39 760 3 l 787 -51 q 716 -94 634 -116 q 551 -138 466 -138 q 348 -138 260 -92 q 172 -45 125 41 q 79 127 79 240 q 79 376 139 488 q 200 600 308 662 q 416 725 550 725 q 667 725 753 680 q 838 636 884 556 q 929 475 929 369 z m 633 365 q 633 415 601 445 q 568 476 515 476 q 465 476 427 445 q 389 414 367 359 q 345 304 345 240 q 345 181 368 148 q 391 115 439 115 q 500 115 551 166 q 602 217 622 294 q 633 339 633 365 z"},".":{"x_min":0,"x_max":278,"ha":278,"o":"m 91 0 l 91 107 l 187 107 l 187 0 z"},"p":{"x_min":0,"x_max":556,"ha":556,"o":"m 514 267 q 514 -10 320 -10 q 198 -10 156 82 l 153 82 q 155 78 155 -1 l 155 -208 l 67 -208 l 67 420 q 67 502 64 528 l 149 528 q 150 526 151 514 q 152 502 153 478 q 154 453 154 443 l 156 443 q 180 492 218 515 q 257 538 320 538 q 417 538 466 472 q 514 407 514 267 z m 422 265 q 422 375 392 422 q 362 470 297 470 q 245 470 216 448 q 186 426 171 379 q 155 333 155 258 q 155 154 188 104 q 222 55 296 55 q 362 55 392 103 q 422 151 422 265 z"},"X":{"x_min":0,"x_max":667,"ha":667,"o":"m 543 0 l 336 301 l 125 0 l 22 0 l 284 357 l 42 688 l 146 688 l 337 418 l 523 688 l 626 688 l 391 361 l 646 0 z"},"*":{"x_min":0,"x_max":389,"ha":389,"o":"m 223 544 l 352 594 l 374 530 l 236 494 l 326 372 l 268 337 l 195 463 l 119 338 l 61 373 l 153 494 l 16 530 l 38 595 l 168 543 l 163 688 l 229 688 z"},"Y":{"x_min":0,"x_max":667,"ha":667,"o":"m 379 285 l 379 0 l 287 0 l 287 285 l 22 688 l 125 688 l 334 360 l 542 688 l 645 688 z"},"c":{"x_min":0,"x_max":500,"ha":500,"o":"m 134 267 q 134 161 167 110 q 201 60 268 60 q 314 60 346 85 q 377 110 385 163 l 474 157 q 463 81 409 36 q 354 -10 270 -10 q 159 -10 101 60 q 42 130 42 265 q 42 398 101 468 q 160 538 269 538 q 350 538 404 496 q 457 454 471 380 l 380 374 q 374 417 346 443 q 318 469 267 469 q 197 469 166 423 q 134 376 134 267 z"},"!":{"x_min":0,"x_max":278,"ha":278,"o":"m 175 194 l 103 194 l 91 688 l 187 688 z m 90 0 l 90 98 l 185 98 l 185 0 z"},"/":{"x_min":0,"x_max":278,"ha":278,"o":"m 0 -10 l 201 725 l 278 725 l 79 -10 z"},"[":{"x_min":0,"x_max":278,"ha":278,"o":"m 71 -208 l 71 725 l 270 725 l 270 662 l 156 662 l 156 -145 l 270 -145 l 270 -208 z"},"6":{"x_min":0,"x_max":556,"ha":556,"o":"m 512 225 q 512 116 453 53 q 394 -10 290 -10 q 174 -10 112 77 q 51 163 51 328 q 51 507 115 603 q 179 698 297 698 q 453 698 493 558 l 409 543 q 383 627 296 627 q 221 627 179 557 q 138 487 138 354 q 162 398 206 422 q 249 445 305 445 q 400 445 456 385 q 512 326 512 225 z m 423 221 q 423 296 386 336 q 350 377 284 377 q 223 377 185 341 q 147 305 147 242 q 147 163 186 112 q 226 61 287 61 q 351 61 387 104 q 423 146 423 221 z"},"r":{"x_min":0,"x_max":333,"ha":333,"o":"m 69 0 l 69 405 q 69 461 66 528 l 149 528 q 153 438 153 420 l 155 420 q 176 488 204 513 q 231 538 281 538 q 298 538 316 533 l 316 453 q 299 458 270 458 q 215 458 186 410 q 157 363 157 275 l 157 0 z"},"2":{"x_min":0,"x_max":556,"ha":556,"o":"m 50 0 l 50 62 q 75 119 111 163 q 147 207 187 242 q 226 277 265 308 q 304 338 335 368 q 366 398 385 432 q 405 465 405 507 q 405 563 372 595 q 338 626 279 626 q 223 626 187 595 q 150 565 144 510 l 54 518 q 64 601 124 649 q 185 698 279 698 q 383 698 439 649 q 495 600 495 510 q 495 470 477 430 q 458 391 422 351 q 386 312 284 229 q 228 183 195 146 q 162 109 147 75 l 506 75 l 506 0 z"},"{":{"x_min":0,"x_max":334,"ha":334,"o":"m 250 -208 q 188 -208 155 -170 q 122 -132 122 -64 l 122 112 q 122 169 96 197 q 70 225 17 228 l 17 290 q 70 292 96 320 q 122 348 122 405 l 122 582 q 122 650 154 688 q 187 725 250 725 l 316 725 l 316 662 l 286 662 q 241 662 222 635 q 204 609 204 557 l 204 383 q 204 337 178 303 q 152 270 109 260 l 109 259 q 152 249 178 215 q 204 182 204 135 l 204 -40 q 204 -91 222 -118 q 241 -145 286 -145 l 316 -145 l 316 -208 z"},"9":{"x_min":0,"x_max":556,"ha":556,"o":"m 509 358 q 509 181 444 85 q 379 -10 260 -10 q 179 -10 131 24 q 82 58 61 134 l 145 147 q 171 61 261 61 q 337 61 378 131 q 420 202 422 332 q 402 288 355 261 q 308 235 251 235 q 158 235 103 298 q 47 362 47 467 q 47 575 107 636 q 168 698 276 698 q 391 698 450 613 q 509 528 509 358 z m 413 443 q 413 526 375 576 q 337 627 273 627 q 209 627 173 584 q 136 541 136 467 q 136 392 173 348 q 209 304 272 304 q 310 304 343 322 q 375 339 394 371 q 413 402 413 443 z"}," ":{"x_min":0,"x_max":278,"ha":278,"o":""},"I":{"x_min":0,"x_max":278,"ha":278,"o":"m 92 0 l 92 688 l 186 688 l 186 0 z"},"H":{"x_min":0,"x_max":722,"ha":722,"o":"m 547 0 l 547 319 l 175 319 l 175 0 l 82 0 l 82 688 l 175 688 l 175 397 l 547 397 l 547 688 l 641 688 l 641 0 z"},"4":{"x_min":0,"x_max":556,"ha":556,"o":"m 430 156 l 430 0 l 347 0 l 347 156 l 23 156 l 23 224 l 338 688 l 430 688 l 430 225 l 527 225 l 527 156 z m 347 589 q 346 586 333 563 q 321 540 314 531 l 138 271 l 112 235 l 104 225 l 347 225 z"},"~":{"x_min":0,"x_max":584,"ha":584,"o":"m 412 270 q 378 270 343 281 q 308 292 272 304 q 209 326 166 326 q 133 326 105 316 q 77 306 45 283 l 45 353 q 99 394 173 394 q 199 394 230 388 q 261 381 324 359 q 339 353 369 345 q 398 337 420 337 q 483 337 539 382 l 539 309 q 511 289 482 279 q 454 270 412 270 z"},"D":{"x_min":0,"x_max":722,"ha":722,"o":"m 674 351 q 674 245 633 165 q 591 85 515 42 q 439 0 339 0 l 82 0 l 82 688 l 310 688 q 484 688 579 600 q 674 513 674 351 z m 581 351 q 581 479 510 546 q 440 613 308 613 l 175 613 l 175 75 l 329 75 q 404 75 462 108 q 519 141 550 204 q 581 266 581 351 z"},"^":{"x_min":0,"x_max":469,"ha":469,"o":"m 384 329 l 233 638 l 84 329 l 5 329 l 185 688 l 284 688 l 464 329 z"},"0":{"x_min":0,"x_max":556,"ha":556,"o":"m 517 344 q 517 172 456 81 q 396 -10 277 -10 q 158 -10 99 81 q 39 171 39 344 q 39 521 97 610 q 155 698 280 698 q 401 698 459 609 q 517 520 517 344 z m 428 344 q 428 493 393 560 q 359 627 280 627 q 199 627 163 561 q 128 495 128 344 q 128 198 164 130 q 200 62 278 62 q 355 62 392 131 q 428 201 428 344 z"},"F":{"x_min":0,"x_max":611,"ha":611,"o":"m 175 612 l 175 356 l 559 356 l 559 279 l 175 279 l 175 0 l 82 0 l 82 688 l 571 688 l 571 612 z"},"`":{"x_min":0,"x_max":333,"ha":333,"o":"m 213 586 l 52 722 l 52 736 l 153 736 l 259 596 l 259 586 z"},"k":{"x_min":0,"x_max":500,"ha":500,"o":"m 398 0 l 220 241 l 155 188 l 155 0 l 67 0 l 67 725 l 155 725 l 155 272 l 387 528 l 490 528 l 276 301 l 501 0 z"},"u":{"x_min":0,"x_max":556,"ha":556,"o":"m 153 528 l 153 193 q 153 141 164 112 q 174 83 196 71 q 219 58 262 58 q 326 58 362 102 q 399 145 399 222 l 399 528 l 487 528 l 487 113 q 487 21 490 0 l 407 0 q 406 2 406 13 q 405 24 405 38 q 404 52 403 90 l 401 90 q 371 36 331 13 q 292 -10 232 -10 q 146 -10 105 33 q 65 77 65 176 l 65 528 z"},"]":{"x_min":0,"x_max":278,"ha":278,"o":"m 8 -208 l 8 -145 l 122 -145 l 122 662 l 8 662 l 8 725 l 207 725 l 207 -208 z"},"U":{"x_min":0,"x_max":722,"ha":722,"o":"m 357 -10 q 272 -10 209 21 q 146 52 112 110 q 77 169 77 250 l 77 688 l 170 688 l 170 258 q 170 164 218 115 q 266 66 356 66 q 449 66 501 116 q 552 167 552 264 l 552 688 l 645 688 l 645 259 q 645 175 610 115 q 574 54 510 22 q 445 -10 357 -10 z"},"o":{"x_min":0,"x_max":556,"ha":556,"o":"m 514 265 q 514 126 453 58 q 392 -10 276 -10 q 160 -10 101 61 q 42 131 42 265 q 42 538 279 538 q 400 538 457 471 q 514 405 514 265 z m 422 265 q 422 374 389 424 q 357 473 280 473 q 203 473 169 423 q 134 372 134 265 q 134 160 168 108 q 202 55 275 55 q 354 55 388 106 q 422 157 422 265 z"},"N":{"x_min":0,"x_max":722,"ha":722,"o":"m 528 0 l 160 586 l 163 539 l 165 457 l 165 0 l 82 0 l 82 688 l 190 688 l 562 98 q 557 194 557 237 l 557 688 l 641 688 l 641 0 z"},"+":{"x_min":0,"x_max":584,"ha":584,"o":"m 328 297 l 328 88 l 256 88 l 256 297 l 49 297 l 49 368 l 256 368 l 256 577 l 328 577 l 328 368 l 535 368 l 535 297 z"},"G":{"x_min":0,"x_max":778,"ha":778,"o":"m 50 347 q 50 515 140 606 q 230 698 393 698 q 507 698 578 660 q 649 621 688 536 l 599 510 q 570 568 518 595 q 467 622 390 622 q 271 622 208 550 q 145 478 145 347 q 145 217 212 141 q 279 66 397 66 q 464 66 523 86 q 581 107 617 142 l 617 266 l 412 266 l 412 344 l 703 344 l 703 107 q 648 51 569 21 q 490 -10 397 -10 q 289 -10 211 33 q 133 76 92 157 q 50 238 50 347 z"},"q":{"x_min":0,"x_max":556,"ha":556,"o":"m 236 -10 q 136 -10 89 58 q 42 126 42 262 q 42 538 236 538 q 296 538 335 517 q 375 496 401 446 l 402 446 q 402 461 404 497 q 406 533 408 535 l 492 535 q 489 506 489 391 l 489 -208 l 401 -208 l 401 7 l 403 87 l 402 87 q 375 35 337 12 q 298 -10 236 -10 z m 401 271 q 401 374 367 423 q 333 473 260 473 q 193 473 164 423 q 134 374 134 265 q 134 154 164 106 q 193 58 259 58 q 333 58 367 111 q 401 165 401 271 z"},"d":{"x_min":0,"x_max":556,"ha":556,"o":"m 401 85 q 376 34 336 12 q 296 -10 236 -10 q 136 -10 89 58 q 42 125 42 262 q 42 538 236 538 q 296 538 336 516 q 376 494 401 446 l 402 446 l 401 505 l 401 725 l 489 725 l 489 109 q 489 26 492 0 l 408 0 q 406 8 405 36 q 403 64 403 85 z m 134 265 q 134 154 164 106 q 193 58 259 58 q 333 58 367 110 q 401 162 401 271 q 401 375 367 424 q 333 473 260 473 q 193 473 164 424 q 134 375 134 265 z"},"1":{"x_min":0,"x_max":556,"ha":556,"o":"m 76 0 l 76 75 l 251 75 l 251 604 l 96 493 l 96 576 l 259 688 l 340 688 l 340 75 l 507 75 l 507 0 z"},"5":{"x_min":0,"x_max":556,"ha":556,"o":"m 514 224 q 514 115 449 53 q 385 -10 270 -10 q 174 -10 115 32 q 56 74 40 154 l 129 164 q 157 62 272 62 q 343 62 383 105 q 423 147 423 222 q 423 287 383 327 q 342 367 274 367 q 238 367 208 356 q 177 345 146 318 l 60 318 l 83 688 l 474 688 l 474 613 l 163 613 l 150 395 q 207 439 292 439 q 394 439 454 379 q 514 320 514 224 z"}}}
